<?xml version="1.0" encoding="UTF-8"?>
<svg version="1.1" xmlns="http://www.w3.org/2000/svg" width="512" height="512">
<path d="M0 0 C32.67 0 65.34 0 99 0 C99 13.2 99 26.4 99 40 C76.56 40 54.12 40 31 40 C29.68 45.61 28.36 51.22 27 57 C24.66484657 66.40062997 24.66484657 66.40062997 23.83010864 69.69143677 C23.6440015 70.42580082 23.45789436 71.16016487 23.26614761 71.91678238 C23.07390484 72.67514263 22.88166206 73.43350288 22.68359375 74.21484375 C22.27073072 75.84762271 21.85796295 77.48042575 21.44528198 79.11325073 C20.34110636 83.48006641 19.23493202 87.84637324 18.12814713 92.21252823 C17.43029691 94.96592006 16.73295185 97.7194394 16.03573608 100.47299194 C7.79632698 133.0099614 -0.51988102 165.52687477 -8.89159203 198.03003311 C-11.77424584 209.22215329 -14.64386753 220.41755599 -17.50642586 231.61483192 C-18.76914588 236.55256399 -20.03376706 241.48980949 -21.29846478 246.42703533 C-22.30755393 250.3670536 -23.31540534 254.30737982 -24.32040405 258.2484436 C-25.2491389 261.89035801 -26.18104033 265.53144681 -27.11543465 269.17191315 C-27.45780399 270.50829143 -27.7989522 271.8449832 -28.13882256 273.18199921 C-28.60124356 275.00048261 -29.06830607 276.8177839 -29.53564453 278.63500977 C-29.79588409 279.65313248 -30.05612366 280.67125519 -30.32424927 281.7202301 C-31 284 -31 284 -32 285 C-33.80361203 285.09748388 -35.61109201 285.12371409 -37.41733646 285.12304783 C-38.60019861 285.12503888 -39.78306076 285.12702993 -41.00176722 285.12908131 C-42.31788585 285.12616847 -43.63400448 285.12325563 -44.99000549 285.12025452 C-46.38917607 285.1206901 -47.78834657 285.12156476 -49.18751663 285.12284368 C-53.05040112 285.12509127 -56.91325815 285.12106378 -60.77613914 285.11606562 C-64.93498797 285.11176506 -69.09383512 285.11320726 -73.25268555 285.1139679 C-80.46417676 285.11449338 -87.67565896 285.11134401 -94.8871479 285.10573006 C-105.31387389 285.09761839 -115.7405955 285.09500018 -126.1673243 285.09374207 C-143.08217375 285.09155102 -159.99701839 285.08488951 -176.91186523 285.07543945 C-193.34741186 285.06626669 -209.78295719 285.05918519 -226.21850586 285.05493164 C-227.73699903 285.05453756 -227.73699903 285.05453756 -229.28616882 285.05413551 C-234.36449833 285.05283051 -239.44282786 285.0515668 -244.52115738 285.05032361 C-286.68077494 285.03994936 -328.84038719 285.02232962 -371 285 C-372.66205392 277.92256992 -374.28529818 270.85611031 -375.6178894 263.70895386 C-375.75576563 262.97369008 -375.89364186 262.23842631 -376.03569615 261.48088181 C-376.48718112 259.06960215 -376.93477501 256.65761845 -377.38232422 254.24560547 C-377.70938846 252.49437104 -378.03669655 250.74318215 -378.36422729 248.99203491 C-379.24700248 244.26846205 -380.12638044 239.54426259 -381.00511312 234.81993628 C-381.93234832 229.8380945 -382.86273295 224.8568409 -383.79275513 219.8755188 C-385.55619024 210.42767843 -387.31678023 200.9793102 -389.07635605 191.53075039 C-391.06013846 180.87907554 -393.04726076 170.22802466 -395.03459907 159.57701278 C-397.46646517 146.54300856 -399.89738286 133.50882738 -402.32662964 120.47433472 C-402.58387143 119.09416674 -402.58387143 119.09416674 -402.84631002 117.68611658 C-403.67332727 113.24812512 -404.49959832 108.80999703 -405.32424736 104.37156487 C-405.63409075 102.70422834 -405.94395624 101.03689592 -406.25384521 99.36956787 C-406.40253418 98.56953925 -406.55122314 97.76951062 -406.70441782 96.94523871 C-407.53346891 92.48990616 -408.36956696 88.03599373 -409.21441114 83.58362901 C-409.5835392 81.63740399 -409.95068057 79.69080248 -410.31775093 77.74418831 C-410.74841541 75.46179403 -411.18247934 73.18003707 -411.62083244 70.89910698 C-411.80574808 69.915422 -411.99066372 68.93173702 -412.18118286 67.91824341 C-412.34088121 67.08054476 -412.50057957 66.24284611 -412.66511726 65.37976265 C-413 63 -413 63 -413 58 C-281.66 57.67 -150.32 57.34 -15 57 C-10.38 38.85 -5.76 20.7 -1 2 C-0.67 1.34 -0.34 0.68 0 0 Z M-366 97 C-364.67332831 106.28670185 -363.24958744 115.45744119 -361.49389648 124.65893555 C-361.25137146 125.94363235 -361.00884644 127.22832916 -360.75897217 128.55195618 C-360.10283022 132.02697387 -359.44281878 135.50124559 -358.78191638 138.97536063 C-358.0876928 142.62770514 -357.39675458 146.28067134 -356.70533752 149.93354797 C-355.54670739 156.05206137 -354.38559265 162.1700991 -353.22290039 168.2878418 C-351.87914866 175.35840488 -350.53913561 182.42966871 -349.20113128 189.50132149 C-347.90990088 196.3254147 -346.61631121 203.1490585 -345.32155037 209.97248268 C-344.77180395 212.86980479 -344.22284011 215.76727355 -343.6744976 218.66486168 C-342.9110131 222.69850956 -342.14405491 226.73148922 -341.37670898 230.7644043 C-341.14967789 231.96592133 -340.92264679 233.16743835 -340.68873596 234.40536499 C-340.47989777 235.49992508 -340.27105957 236.59448517 -340.05589294 237.72221375 C-339.78463419 239.15091057 -339.78463419 239.15091057 -339.50789547 240.60846996 C-339.01936745 243.12898094 -339.01936745 243.12898094 -338 246 C-247.25 246 -156.5 246 -63 246 C-60.99970604 239.99911813 -59.16809098 234.12742328 -57.63085938 228.01586914 C-57.41400482 227.16518356 -57.19715027 226.31449799 -56.97372437 225.43803406 C-56.26067181 222.6378432 -55.55225765 219.83650017 -54.84375 217.03515625 C-54.33663614 215.04104804 -53.82918271 213.04702616 -53.32141113 211.05308533 C-51.98134405 205.78787556 -50.64498812 200.52173164 -49.30969238 195.25531006 C-47.20999047 186.97568495 -45.10581098 178.69719756 -42.99993896 170.41913986 C-42.4796599 168.37350341 -41.95968045 166.32779073 -41.44000244 164.2820015 C-38.59055665 153.06725835 -35.71382081 141.86061672 -32.765625 130.67138672 C-32.37739941 129.19693982 -32.37739941 129.19693982 -31.98133087 127.69270611 C-30.75184023 123.02728736 -29.51729946 118.36328289 -28.27526855 113.70118713 C-27.83904004 112.05268203 -27.4028788 110.40415912 -26.96679688 108.75561523 C-26.76590454 108.00830328 -26.56501221 107.26099133 -26.35803223 106.49103355 C-25.58808199 103.57033413 -25 101.03538814 -25 98 C-137.53 97.67 -250.06 97.34 -366 97 Z " fill="#F8F8F8" transform="translate(413,43)"/>
<path d="M0 0 C1.03362307 -0.00523668 2.06724614 -0.01047336 3.13219112 -0.01586872 C6.57709438 -0.03080575 10.02184827 -0.0315725 13.46678162 -0.03224182 C15.94458261 -0.03986762 18.42238124 -0.04829585 20.900177 -0.0574646 C27.61952319 -0.07937713 34.33880976 -0.08822684 41.05818295 -0.09329104 C45.26134726 -0.09655756 49.4645025 -0.10308579 53.66766167 -0.11029243 C65.32683929 -0.12984887 76.98600852 -0.14625842 88.64520359 -0.14916897 C89.76260185 -0.14945032 89.76260185 -0.14945032 90.90257382 -0.14973736 C92.41244471 -0.15010359 93.9223156 -0.15046729 95.43218649 -0.15082847 C96.18159116 -0.15101128 96.93099584 -0.1511941 97.70310974 -0.15138245 C98.45343941 -0.151563 99.20376908 -0.15174354 99.97683602 -0.15192956 C112.12260428 -0.15546784 124.26819487 -0.18247272 136.41390157 -0.21988034 C148.91221037 -0.25806284 161.41043123 -0.27732717 173.90879959 -0.27762848 C180.91468707 -0.27821085 187.92036261 -0.28655964 194.92619514 -0.31562614 C201.52139268 -0.34286503 208.11624591 -0.34396078 214.71150398 -0.3279705 C217.12202368 -0.32616318 219.53256791 -0.33278133 221.94303513 -0.34878922 C244.17276865 -0.48732805 260.94598009 2.89389732 277.5700531 18.64915466 C289.40864873 30.43174179 294.43331055 45.1293661 294.6950531 61.58665466 C294.58983115 79.0745421 288.56938899 94.27392261 276.20677185 106.64915466 C263.46032053 118.49647872 247.1182804 125.17795447 229.5700531 124.61790466 C210.44417603 122.55531008 194.20031873 114.32991346 182.03489685 99.39134216 C171.75072957 84.97428523 168.15285924 67.80278799 171.01927185 50.41087341 C172.86811036 42.30304014 172.86811036 42.30304014 174.3825531 39.27415466 C136.1025531 39.27415466 97.8225531 39.27415466 58.3825531 39.27415466 C59.3725531 42.57415466 60.3625531 45.87415466 61.3825531 49.27415466 C64.65084084 65.31847629 61.20899358 82.50490752 52.3825531 96.27415466 C49.60932762 99.86365028 46.60667553 103.0877728 43.3825531 106.27415466 C42.69419373 106.9844281 42.00583435 107.69470154 41.2966156 108.42649841 C30.20996699 119.16282541 15.64521382 124.14309827 0.3825531 124.64915466 C-17.0644722 124.04912469 -32.79634654 117.45534105 -45.0627594 105.06321716 C-59.04583942 89.79728576 -62.50089856 73.79216767 -61.76100159 53.70140076 C-60.8098097 37.61849296 -51.72012957 24.76897872 -40.27760315 14.09056091 C-28.44502648 3.94561269 -15.29997786 -0.03884761 0 0 Z M-18.71510315 48.02806091 C-21.87524014 53.87767619 -24.26059367 59.64679601 -22.6174469 66.27415466 C-20.03580066 73.20245019 -17.49363506 79.0555134 -10.6174469 82.27415466 C-4.72932653 84.93456786 1.46138166 85.49745435 7.69895935 83.55149841 C14.12517525 80.53959077 18.67143612 76.02677508 21.65208435 69.57884216 C23.52897157 63.65711243 23.30417528 57.54337815 20.6950531 51.89915466 C17.45900529 46.32722727 12.8059649 41.554855 6.48020935 39.72337341 C-2.96574952 37.70049581 -12.66041449 40.07916797 -18.71510315 48.02806091 Z M213.8825531 47.96165466 C209.99549415 53.83641421 208.72783981 60.10206915 210.0075531 67.02415466 C211.73892604 73.27694738 215.00956727 77.65051306 220.3825531 81.27415466 C225.99966517 84.35805933 231.00300749 85.28045204 237.3825531 84.27415466 C244.95690783 81.69799331 249.96008925 77.99795916 253.6325531 70.83665466 C255.80901617 63.40040584 255.83846932 57.04051471 252.26145935 50.09837341 C248.51061092 44.45616232 243.80101696 41.34401431 237.3825531 39.27415466 C228.29047726 37.55174278 219.80036909 40.88038456 213.8825531 47.96165466 Z " fill="#FAFAFA" transform="translate(95.61744689941406,344.72584533691406)"/>
<path d="M0 0 C15.10229799 11.33313363 27.45858449 26.50151459 30.30078125 45.7265625 C31.70023107 67.01767033 27.57345546 84.75868456 13.4453125 101.453125 C2.52775526 113.02692885 -12.83739717 121.31287423 -28.8515625 122.00390625 C-49.33035317 122.5228893 -66.38332481 117.91786283 -81.69921875 103.7265625 C-82.74335938 102.76363281 -82.74335938 102.76363281 -83.80859375 101.78125 C-88.20243944 97.30225226 -91.18431542 92.39928045 -94.01171875 86.8515625 C-94.33736816 86.21605469 -94.66301758 85.58054687 -94.99853516 84.92578125 C-99.4219229 75.77997278 -101.26763342 66.66529964 -101.19921875 56.5390625 C-101.19349854 55.54092529 -101.18777832 54.54278809 -101.18188477 53.5144043 C-100.76398793 36.00635625 -93.64503968 21.00769549 -81.5546875 8.33203125 C-59.73001674 -11.58186123 -25.25715278 -16.55510855 0 0 Z M-56.69921875 7.7265625 C-57.62992188 8.1390625 -58.560625 8.5515625 -59.51953125 8.9765625 C-70.17391154 14.19987986 -78.83853875 22.85079099 -83.69921875 33.7265625 C-86.55982187 41.55579082 -86.55982187 41.55579082 -87.69921875 49.7265625 C-83.37615021 49.9249559 -79.05551529 50.06975871 -74.72924805 50.16601562 C-73.25937748 50.20614861 -71.78982442 50.26067408 -70.32104492 50.33007812 C-61.98022976 51.0917549 -61.98022976 51.0917549 -54.70068359 48.01123047 C-53.35555693 45.9332193 -53.35555693 45.9332193 -52.5300293 43.73974609 C-50.86199483 39.6978383 -47.2162694 37.44106065 -43.34375 35.6171875 C-37.52707562 33.65824842 -31.01501534 33.76715268 -25.38671875 36.2890625 C-19.85282414 39.48213105 -16.51224692 44.10050615 -13.69921875 49.7265625 C-3.46921875 49.7265625 6.76078125 49.7265625 17.30078125 49.7265625 C13.29577394 33.70653328 7.83778392 20.40897455 -6.69921875 11.2890625 C-22.30022394 2.77494926 -40.11830503 0.03686338 -56.69921875 7.7265625 Z M-42.69921875 49.7265625 C-45.19080915 53.4639481 -45.1571516 55.29987833 -44.69921875 59.7265625 C-42.65494316 63.48802959 -41.44578909 64.50535647 -37.32421875 65.7265625 C-33.17243617 65.7265625 -31.1255268 65.0373284 -27.69921875 62.7265625 C-25.52699496 60.08211615 -25.70028554 58.69669232 -25.82421875 55.2265625 C-26.79736128 51.33399236 -27.40926303 49.97758483 -30.69921875 47.7265625 C-35.7885658 46.33855876 -38.54058887 46.3996586 -42.69921875 49.7265625 Z M-87.69921875 62.7265625 C-84.73872254 79.00929168 -78.41633046 90.86974723 -64.65234375 100.48828125 C-51.64929272 108.7322156 -37.10575854 110.77170517 -22.0390625 108.0703125 C-7.84949481 104.14661798 3.20965888 95.54357124 10.61328125 82.9140625 C14.06511508 76.78287354 17.30078125 69.90537346 17.30078125 62.7265625 C12.99609017 62.50303647 8.69451592 62.34032969 4.38574219 62.23217773 C2.92257848 62.18708022 1.45981686 62.12577606 -0.00195312 62.04760742 C-8.53943313 61.29758622 -8.53943313 61.29758622 -15.94018555 64.68432617 C-17.44230295 66.97380479 -18.5587867 69.24394032 -19.69921875 71.7265625 C-25.22903235 76.98662909 -30.45621265 78.20565337 -37.91796875 78.03515625 C-44.87170939 77.26360357 -49.15925126 73.8092041 -53.47265625 68.5078125 C-54.69921875 66.7265625 -54.69921875 66.7265625 -56.69921875 62.7265625 C-66.92921875 62.7265625 -77.15921875 62.7265625 -87.69921875 62.7265625 Z " fill="#E9EAEA" transform="translate(248.69921875,157.2734375)"/>
<path d="M0 0 C0.66 0.33 1.32 0.66 2 1 C-1.96 4.96 -5.92 8.92 -10 13 C-10.66 12.67 -11.32 12.34 -12 12 C-10.75479583 10.55834372 -9.50362077 9.12184348 -8.25 7.6875 C-7.55390625 6.88699219 -6.8578125 6.08648437 -6.140625 5.26171875 C-4.20854665 3.22034399 -2.30056874 1.60107149 0 0 Z " fill="#9D9D9D" transform="translate(174,160)"/>
</svg>
